#!OML:ASF F:\VICON\USERDATA\INSTALL\rory3\rory3.ASF
:FULLY-SPECIFIED
:DEGREES
322
root -7.1197 19.1624 3.17447 -21.6135 -82.7397 18.7387
lowerback 3.01609 0.956249 -2.57123
upperback -2.5074 1.04682 -1.85534
thorax -4.29214 0.555045 -0.543553
lowerneck -11.9867 -2.55297 -8.4488
upperneck -9.92775 -2.62356 5.15595
head -0.953714 -1.20567 3.08112
rclavicle 1.70458e-014 7.15625e-015
rhumerus 87.6305 -23.1496 -54.5745
rradius 38.3837
rwrist 30.6281
rhand -57.2018 -11.0786
rfingers 7.12502
rthumb -29.4842 -38.758
lclavicle 1.70458e-014 7.15625e-015
lhumerus 79.3376 23.8931 28.0494
lradius 38.8291
lwrist -7.60134
lhand -20.0391 25.0466
lfingers 7.12502
lthumb 6.30203 54.9328
rfemur -3.4899 19.4455 18.0934
rtibia 38.0446
rfoot -12.1746 -18.9198
rtoes 4.97416
lfemur -2.7818 -5.03817 -24.2995
ltibia 30.1931
lfoot -4.84393 6.66549
ltoes -26.0419
323
root -7.11787 19.0992 3.2024 -21.5421 -82.9862 18.7323
lowerback 3.07727 1.04327 -2.25192
upperback -2.56647 1.17526 -1.8616
thorax -4.38222 0.609963 -0.739586
lowerneck -11.5706 -2.4927 -8.74757
upperneck -10.3134 -2.54028 5.32171
head -1.15173 -1.15599 3.20837
rclavicle -2.6339e-015 9.93923e-015
rhumerus 88.0362 -23.328 -54.9785
rradius 38.4064
rwrist 31.2567
rhand -56.7295 -12.3409
rfingers 7.12502
rthumb -29.0332 -40.0989
lclavicle -2.6339e-015 9.93923e-015
lhumerus 79.3497 23.9575 28.3138
lradius 39.2337
lwrist -7.71359
lhand -19.5185 25.3128
lfingers 7.12502
lthumb 6.80468 55.1834
rfemur -3.3719 18.8746 18.138
rtibia 38.0229
rfoot -13.6613 -19.4154
rtoes 4.27369
lfemur -2.74073 -4.81938 -24.3716
ltibia 30.3136
lfoot -6.08205 6.94049
ltoes -25.322
324
root -7.11204 19.0311 3.2276 -22.3421 -83.1501 19.5587
lowerback 3.23615 1.08594 -2.05677
upperback -2.62376 1.23219 -1.92121
thorax -4.52663 0.631631 -0.918872
lowerneck -10.9201 -2.31661 -9.1098
upperneck -10.9306 -2.31197 5.65786
head -1.47764 -1.03351 3.42033
rclavicle 1.39149e-015 -1.27222e-014
rhumerus 88.3235 -23.4587 -55.1417
rradius 38.3407
rwrist 31.1446
rhand -57.0308 -12.7786
rfingers 7.12502
rthumb -29.3209 -40.4867
lclavicle 1.39149e-015 -1.27222e-014
lhumerus 79.2635 24.0617 28.2561
lradius 39.5921
lwrist -7.47517
lhand -19.5784 26.0302
lfingers 7.12502
lthumb 6.74685 55.9027
rfemur -3.21328 18.3292 18.0576
rtibia 38.0066
rfoot -15.2454 -19.8855
rtoes 4.31962
lfemur -2.69198 -4.64642 -24.5869
ltibia 30.4696
lfoot -7.282 7.25671
ltoes -25.0546
325
root -7.10252 18.9651 3.24981 -21.9516 -83.3693 19.1395
lowerback 3.46902 1.12013 -1.8342
upperback -2.6715 1.28393 -1.88282
thorax -4.70427 0.651908 -1.01383
lowerneck -10.5712 -2.22948 -9.31531
upperneck -11.2747 -2.19885 5.85338
head -1.65851 -0.972537 3.54266
rclavicle 8.19987e-015 -1.90833e-014
rhumerus 88.7225 -23.4944 -55.4725
rradius 38.2203
rwrist 31.4247
rhand -57.1911 -14.1864
rfingers 7.12502
rthumb -29.4739 -41.8677
lclavicle 8.19987e-015 -1.90833e-014
lhumerus 79.153 24.1454 28.1659
lradius 39.9388
lwrist -6.88828
lhand -19.7728 26.3988
lfingers 7.12502
lthumb 6.5592 56.2773
rfemur -3.00879 17.7493 18.1946
rtibia 37.9854
rfoot -16.4652 -20.6111
rtoes 2.84543
lfemur -2.63184 -4.26545 -24.5527
ltibia 30.6473
lfoot -8.44652 7.34393
ltoes -24.8092
326
root -7.09407 18.9048 3.2705 -21.2405 -83.6134 18.4363
lowerback 3.64568 1.18191 -1.65972
upperback -2.69576 1.37672 -1.78655
thorax -4.82759 0.694987 -1.0238
lowerneck -10.6236 -2.25937 -9.4733
upperneck -11.3195 -2.21556 5.97086
head -1.66133 -0.975987 3.6147
rclavicle 1.98785e-015 -1.43125e-014
rhumerus 89.2115 -23.5658 -55.901
rradius 38.1066
rwrist 31.6877
rhand -57.0132 -14.0555
rfingers 7.12502
rthumb -29.3041 -41.7665
lclavicle 1.98785e-015 -1.43125e-014
lhumerus 79.042 24.2534 28.2963
lradius 40.4692
lwrist -6.33828
lhand -19.584 27.5636
lfingers 7.12502
lthumb 6.74145 57.4363
rfemur -2.84608 17.2788 18.3497
rtibia 37.9709
rfoot -17.7064 -21.1759
rtoes 1.15097
lfemur -2.63855 -3.89569 -24.4706
ltibia 30.8176
lfoot -9.55222 7.45723
ltoes -24.8433
327
root -7.08572 18.8471 3.28762 -22.0408 -83.7633 19.2932
lowerback 3.74749 1.24421 -1.71825
upperback -2.70245 1.45603 -1.74005
thorax -4.89498 0.737478 -0.951956
lowerneck -10.6229 -2.30342 -9.65972
upperneck -11.4733 -2.2527 6.1292
head -1.70779 -0.989311 3.70907
rclavicle 1.07344e-014 -9.93923e-015
rhumerus 89.663 -23.6536 -56.2322
rradius 38.1388
rwrist 31.581
rhand -56.7551 -14.6075
rfingers 7.12502
rthumb -29.0576 -42.3614
lclavicle 1.07344e-014 -9.93923e-015
lhumerus 78.9133 24.3784 28.467
lradius 41.1007
lwrist -5.83797
lhand -19.2983 29.9564
lfingers 7.12502
lthumb 7.01716 59.8201
rfemur -2.73459 16.7728 18.2192
rtibia 37.9467
rfoot -18.8534 -21.2552
rtoes 0.14376
lfemur -2.68796 -3.64043 -24.613
ltibia 30.9835
lfoot -10.5012 7.65546
ltoes -25.2105
328
root -7.07635 18.7877 3.29865 -24.013 -83.9238 21.3479
lowerback 3.80854 1.32123 -1.89354
upperback -2.72621 1.54384 -1.76412
thorax -4.95884 0.78625 -0.888013
lowerneck -10.5382 -2.32534 -9.70864
upperneck -11.6819 -2.28478 6.20696
head -1.7893 -1.00509 3.75036
rclavicle -2.41026e-014 1.94809e-014
rhumerus 89.9714 -23.7386 -56.4153
rradius 38.1958
rwrist 31.3841
rhand -56.7565 -16.4229
rfingers 7.12502
rthumb -29.0589 -44.1765
lclavicle -2.41026e-014 1.94809e-014
lhumerus 78.7439 24.4721 28.4859
lradius 41.6886
lwrist -5.40335
lhand -19.4276 30.9486
lfingers 7.12502
lthumb 6.89242 60.8164
rfemur -2.67592 16.5352 17.9767
rtibia 37.9075
rfoot -20.1304 -21.139
rtoes -0.0718882
lfemur -2.74271 -3.45022 -24.8523
ltibia 31.1151
lfoot -11.3223 7.88291
ltoes -25.0746
329
root -7.06861 18.7329 3.30591 -26.076 -84.0577 23.4887
lowerback 3.83972 1.37655 -2.06159
upperback -2.75766 1.60113 -1.82602
thorax -5.01293 0.818731 -0.864351
lowerneck -10.3082 -2.27395 -9.5249
upperneck -12.0067 -2.26091 6.15013
head -1.94295 -1.00171 3.70421
rclavicle 2.36554e-014 -7.95139e-015
rhumerus 90.2456 -23.7984 -56.8015
rradius 38.1795
rwrist 31.3312
rhand -57.1237 -10.4323
rfingers 7.12502
rthumb -29.4096 -38.1249
lclavicle 2.36554e-014 -7.95139e-015
lhumerus 78.5979 24.5289 28.4083
lradius 42.172
lwrist -5.18032
lhand -19.7365 30.6017
lfingers 7.12502
lthumb 6.59421 60.479
rfemur -2.62417 16.4144 17.7495
rtibia 37.8447
rfoot -21.4432 -21.0459
rtoes 0.417873
lfemur -2.78928 -3.33894 -25.0692
ltibia 31.1958
lfoot -12.1664 7.98468
ltoes -24.3619
330
root -7.06194 18.6868 3.31379 -27.0037 -84.1661 24.4347
lowerback 3.90736 1.41588 -2.06248
upperback -2.75533 1.64724 -1.89648
thorax -5.04723 0.839974 -0.942523
lowerneck -10.1607 -2.24659 -9.29801
upperneck -12.2653 -2.26295 6.11215
head -2.05761 -1.01314 3.65375
rclavicle 1.62506e-014 -1.31198e-014
rhumerus 90.4971 -23.9195 -57.249
rradius 38.1039
rwrist 31.2442
rhand -57.39 8.53797
rfingers 7.12502
rthumb -29.6638 -19.1096
lclavicle 1.62506e-014 -1.31198e-014
lhumerus 78.4139 24.5667 28.2653
lradius 42.7884
lwrist -4.92814
lhand -20.1711 30.6504
lfingers 7.12502
lthumb 6.17468 60.5404
rfemur -2.51883 16.1979 17.6511
rtibia 37.7438
rfoot -22.5248 -20.9316
rtoes 0.2116
lfemur -2.80883 -3.23084 -25.1374
ltibia 31.2451
lfoot -12.9181 7.94404
ltoes -24.1837
331
root -7.0542 18.651 3.32016 -27.5901 -84.2697 24.9857
lowerback 4.05037 1.4731 -2.02029
upperback -2.74352 1.71825 -1.96314
thorax -5.11319 0.872307 -1.04515
lowerneck -10.1512 -2.29672 -9.24341
upperneck -12.377 -2.32975 6.228
head -2.09059 -1.05087 3.68517
rclavicle 1.70955e-014 1.51076e-014
rhumerus 90.6952 -24.0254 -57.6484
rradius 38.0123
rwrist 31.2379
rhand -56.0748 -7.03206
rfingers 7.12502
rthumb -28.4077 -34.8961
lclavicle 1.70955e-014 1.51076e-014
lhumerus 78.258 24.5604 28.1192
lradius 43.469
lwrist -4.58778
lhand -20.5506 30.8089
lfingers 7.12502
lthumb 5.80826 60.7092
rfemur -2.3226 16.1991 17.6614
rtibia 37.6069
rfoot -23.6692 -20.8363
rtoes -0.225888
lfemur -2.75658 -3.15524 -25.1493
ltibia 31.2862
lfoot -13.5142 7.84267
ltoes -24.0327
